<svg width="410" height="780" viewBox="0 0 410 780" fill="none" xmlns="http://www.w3.org/2000/svg">
<g filter="url(#filter0_d_178_369)">
<path d="M30.8488 67.8606C30.8488 48.0882 44.675 30.8488 68.1308 30.8488H316.542C329.548 30.8488 339.406 34.7547 346.012 41.3623C352.619 47.9716 356.067 57.3782 356.067 68.5617V693.542C356.067 713.208 340.128 729.151 320.467 729.151H66.4486C46.7876 729.151 30.8488 713.208 30.8488 693.542V67.8606Z" fill="black" stroke="#1A1A1A" stroke-width="1.69754"/>
<path d="M43.8155 43.3754C38.0114 49.232 34.774 57.729 34.774 68.2813V693.822C34.774 711.166 48.8299 725.225 66.1682 725.225H320.748C338.086 725.225 352.142 711.166 352.142 693.821L352.703 68.702L43.8155 43.3754ZM43.8155 43.3754C49.6185 37.52 58.0761 34.2142 68.6916 34.2142M43.8155 43.3754L68.6916 34.2142M68.6916 34.2142H317.804M68.6916 34.2142H317.804M317.804 34.2142C329.74 34.2142 338.434 38.0383 344.15 44.1967M317.804 34.2142L344.15 44.1967M344.15 44.1967C349.876 50.366 352.702 58.9746 352.703 68.7012L344.15 44.1967Z" fill="url(#paint0_angular_178_369)" stroke="#1A1A1A" stroke-width="1.69754"/>
<path d="M69.6346 37.7171C60.4522 37.7171 52.7149 40.1853 47.2719 45.3523C41.8263 50.5219 38.7171 58.3551 38.7171 69.0016V693.944C38.7171 709.596 51.4273 722.283 67.1052 722.283H320.895C336.573 722.283 349.283 709.596 349.283 693.944V68.8614C349.283 58.8426 346.207 51.0475 340.748 45.7576C335.29 40.4692 327.484 37.7171 318.084 37.7171H69.6346Z" fill="black" stroke="black" stroke-width="0.565845"/>
<rect x="131.776" y="33.3654" width="124.486" height="2.52404" rx="1.26202" fill="#1A1A1A"/>
<g filter="url(#filter1_iii_178_369)">
<path d="M357.057 138.395H358.585C359.289 138.395 359.859 138.965 359.859 139.668V220.693C359.859 221.396 359.289 221.966 358.585 221.966H357.057V138.395Z" fill="#1A1A1A" stroke="#1A1A1A" stroke-width="0.282923"/>
<path d="M357.057 277.497H358.585C359.289 277.497 359.859 278.067 359.859 278.77V320.532C359.859 321.236 359.289 321.806 358.585 321.806H357.057V277.497Z" fill="#1A1A1A" stroke="#1A1A1A" stroke-width="0.282923"/>
</g>
<rect x="305.888" y="724.391" width="6.16821" height="5.609" fill="#191919"/>
<rect x="73.1776" y="724.391" width="6.16822" height="5.609" fill="#191919"/>
<rect x="351.869" y="90.5769" width="5.04674" height="7.57211" fill="#191919"/>
<rect x="30" y="90.5769" width="5.60748" height="7.57211" fill="#191919"/>
</g>
<defs>
<filter id="filter0_d_178_369" x="0" y="0" width="410" height="780" filterUnits="userSpaceOnUse" color-interpolation-filters="sRGB">
<feFlood flood-opacity="0" result="BackgroundImageFix"/>
<feColorMatrix in="SourceAlpha" type="matrix" values="0 0 0 0 0 0 0 0 0 0 0 0 0 0 0 0 0 0 127 0" result="hardAlpha"/>
<feOffset dx="10" dy="10"/>
<feGaussianBlur stdDeviation="20"/>
<feColorMatrix type="matrix" values="0 0 0 0 0.010625 0 0 0 0 0.0787667 0 0 0 0 0.141667 0 0 0 0.22 0"/>
<feBlend mode="normal" in2="BackgroundImageFix" result="effect1_dropShadow_178_369"/>
<feBlend mode="normal" in="SourceGraphic" in2="effect1_dropShadow_178_369" result="shape"/>
</filter>
<filter id="filter1_iii_178_369" x="356.633" y="137.121" width="3.36703" height="185.957" filterUnits="userSpaceOnUse" color-interpolation-filters="sRGB">
<feFlood flood-opacity="0" result="BackgroundImageFix"/>
<feBlend mode="normal" in="SourceGraphic" in2="BackgroundImageFix" result="shape"/>
<feColorMatrix in="SourceAlpha" type="matrix" values="0 0 0 0 0 0 0 0 0 0 0 0 0 0 0 0 0 0 127 0" result="hardAlpha"/>
<feOffset dy="1.13169"/>
<feGaussianBlur stdDeviation="0.565845"/>
<feComposite in2="hardAlpha" operator="arithmetic" k2="-1" k3="1"/>
<feColorMatrix type="matrix" values="0 0 0 0 0 0 0 0 0 0 0 0 0 0 0 0 0 0 1 0"/>
<feBlend mode="normal" in2="shape" result="effect1_innerShadow_178_369"/>
<feColorMatrix in="SourceAlpha" type="matrix" values="0 0 0 0 0 0 0 0 0 0 0 0 0 0 0 0 0 0 127 0" result="hardAlpha"/>
<feOffset dy="-1.13169"/>
<feGaussianBlur stdDeviation="0.565845"/>
<feComposite in2="hardAlpha" operator="arithmetic" k2="-1" k3="1"/>
<feColorMatrix type="matrix" values="0 0 0 0 0 0 0 0 0 0 0 0 0 0 0 0 0 0 1 0"/>
<feBlend mode="normal" in2="effect1_innerShadow_178_369" result="effect2_innerShadow_178_369"/>
<feColorMatrix in="SourceAlpha" type="matrix" values="0 0 0 0 0 0 0 0 0 0 0 0 0 0 0 0 0 0 127 0" result="hardAlpha"/>
<feOffset dx="-0.565845"/>
<feGaussianBlur stdDeviation="0.141461"/>
<feComposite in2="hardAlpha" operator="arithmetic" k2="-1" k3="1"/>
<feColorMatrix type="matrix" values="0 0 0 0 0.294118 0 0 0 0 0.294118 0 0 0 0 0.294118 0 0 0 1 0"/>
<feBlend mode="normal" in2="effect2_innerShadow_178_369" result="effect3_innerShadow_178_369"/>
</filter>
<radialGradient id="paint0_angular_178_369" cx="0" cy="0" r="1" gradientUnits="userSpaceOnUse" gradientTransform="translate(193.458 379.72) rotate(90) scale(346.354 159.533)">
<stop offset="0.10636" stop-color="#5C5C5C"/>
<stop offset="0.111863" stop-color="#454545"/>
<stop offset="0.119827"/>
<stop offset="0.131993" stop-color="#464646"/>
<stop offset="0.237303" stop-color="#636161"/>
<stop offset="0.372604" stop-color="#606060"/>
<stop offset="0.377513"/>
<stop offset="0.387214" stop-color="#ABABAB"/>
<stop offset="0.435555" stop-color="#6D6D6D"/>
<stop offset="0.498546" stop-color="#7A7A7A"/>
<stop offset="0.592961" stop-color="#7C7C7C"/>
<stop offset="0.615302" stop-color="#545454"/>
<stop offset="0.623851"/>
<stop offset="0.630432" stop-color="#505050"/>
<stop offset="0.838967" stop-color="#444444"/>
<stop offset="0.86663" stop-color="#343434"/>
<stop offset="0.876977"/>
<stop offset="0.887088" stop-color="#252527"/>
<stop offset="0.96724" stop-color="#363636"/>
</radialGradient>
</defs>
</svg>
